<svg xmlns="http://www.w3.org/2000/svg" width="600" height="400" viewBox="0 0 600 400"><rect width="100%" height="100%" fill="#282828"/><path fill="#FFFFFF" d="M151.62 206.285q.66 0 1.17.51l3.18 3.45q-2.64 3.27-6.49 5.01-3.86 1.74-9.26 1.74-4.83 0-8.68-1.65-3.86-1.65-6.59-4.59t-4.19-7.02q-1.45-4.08-1.45-8.91 0-4.89 1.56-8.95 1.56-4.07 4.4-7.01 2.83-2.94 6.76-4.58 3.93-1.63 8.7-1.63 4.74 0 8.42 1.56 3.67 1.56 6.25 4.08l-2.7 3.75q-.24.36-.61.63-.38.27-1.04.27-.45 0-.93-.25-.48-.26-1.05-.63-.57-.38-1.32-.83t-1.74-.82q-.99-.38-2.29-.63-1.31-.26-3.02-.26-2.91 0-5.32 1.04-2.42 1.03-4.16 3-1.74 1.96-2.7 4.8-.96 2.83-.96 6.46 0 3.66 1.04 6.51 1.03 2.85 2.8 4.8t4.17 2.99q2.4 1.03 5.16 1.03 1.65 0 2.99-.18 1.33-.18 2.45-.57 1.13-.39 2.14-1.01 1-.61 1.99-1.51.3-.27.63-.43.33-.17.69-.17m22.35-21.03q3.42 0 6.23 1.11 2.8 1.11 4.8 3.15 1.99 2.04 3.07 4.98t1.08 6.57q0 3.66-1.08 6.6t-3.07 5.01q-2 2.07-4.8 3.18-2.81 1.11-6.23 1.11-3.45 0-6.27-1.11t-4.82-3.18q-1.99-2.07-3.09-5.01-1.09-2.94-1.09-6.6 0-3.63 1.09-6.57 1.1-2.94 3.09-4.98 2-2.04 4.82-3.15t6.27-1.11m0 26.01q3.84 0 5.69-2.58 1.84-2.58 1.84-7.56t-1.84-7.59q-1.85-2.61-5.69-2.61-3.9 0-5.77 2.63-1.88 2.62-1.88 7.57t1.88 7.55q1.87 2.59 5.77 2.59m39.96-25.53h7.41v30.78h-4.53q-1.47 0-1.86-1.35l-.51-2.46q-1.89 1.92-4.17 3.11-2.28 1.18-5.37 1.18-2.52 0-4.45-.86-1.94-.85-3.26-2.41t-1.99-3.71q-.68-2.14-.68-4.72v-19.56h7.41v19.56q0 2.82 1.31 4.37 1.3 1.54 3.91 1.54 1.92 0 3.6-.86 1.68-.85 3.18-2.35zm21.27 1.86.45 3.48q1.44-2.76 3.42-4.33 1.98-1.58 4.68-1.58 2.13 0 3.42.93l-.48 5.55q-.15.54-.43.76-.29.23-.77.23-.45 0-1.33-.15-.89-.15-1.73-.15-1.23 0-2.19.36t-1.72 1.03q-.77.68-1.35 1.64-.59.96-1.1 2.19v18.96h-7.41v-30.78h4.35q1.14 0 1.59.4.45.41.6 1.46m36.3 1.47-1.68 2.67q-.3.48-.63.67-.33.2-.84.2-.54 0-1.15-.3-.62-.3-1.43-.67-.81-.38-1.84-.68-1.04-.3-2.45-.3-2.19 0-3.43.93-1.25.93-1.25 2.43 0 .99.65 1.66.64.68 1.71 1.19 1.06.51 2.41.92 1.35.4 2.75.88 1.39.48 2.74 1.1 1.35.61 2.42 1.55 1.06.95 1.71 2.27.64 1.32.64 3.18 0 2.22-.79 4.1-.8 1.87-2.36 3.23-1.56 1.37-3.85 2.14-2.3.76-5.3.76-1.59 0-3.1-.28-1.52-.29-2.91-.8-1.4-.51-2.58-1.2-1.19-.69-2.09-1.5l1.71-2.82q.33-.51.78-.78t1.14-.27 1.31.39q.61.39 1.42.84t1.91.84q1.09.39 2.77.39 1.32 0 2.27-.31.94-.32 1.56-.83.61-.51.9-1.19.28-.67.28-1.39 0-1.08-.64-1.77-.65-.69-1.71-1.2-1.07-.51-2.43-.91-1.37-.41-2.79-.89-1.43-.48-2.79-1.12-1.37-.65-2.43-1.64-1.07-.99-1.71-2.43-.65-1.44-.65-3.48 0-1.89.75-3.6t2.21-2.98q1.45-1.28 3.63-2.04 2.17-.77 5.02-.77 3.18 0 5.79 1.05t4.35 2.76m11.76 8.52h13.98q0-1.44-.4-2.71-.41-1.28-1.22-2.24t-2.06-1.51q-1.24-.56-2.89-.56-3.21 0-5.05 1.83-1.85 1.83-2.36 5.19m18.9 4.47h-19.05q.18 2.37.84 4.09.66 1.73 1.74 2.86 1.08 1.12 2.56 1.68 1.49.55 3.29.55t3.11-.42q1.3-.42 2.28-.93.97-.51 1.7-.93.74-.42 1.43-.42.93 0 1.38.69l2.13 2.7q-1.23 1.44-2.76 2.42-1.53.97-3.2 1.56-1.66.58-3.39.82-1.72.24-3.34.24-3.21 0-5.97-1.06-2.76-1.07-4.8-3.15-2.04-2.09-3.21-5.16-1.17-3.08-1.17-7.13 0-3.15 1.02-5.92 1.02-2.78 2.93-4.83 1.9-2.06 4.65-3.26 2.74-1.2 6.19-1.2 2.91 0 5.37.93t4.23 2.72q1.77 1.78 2.78 4.38 1 2.59 1 5.92 0 1.68-.36 2.27-.36.58-1.38.58m31.14-28.92v43.38h-8.1v-43.38zm15.93 43.38h-7.41v-30.78h4.53q1.44 0 1.89 1.35l.48 2.28q.81-.9 1.7-1.65.88-.75 1.89-1.29 1-.54 2.15-.86 1.16-.31 2.54-.31 2.91 0 4.78 1.58 1.88 1.57 2.81 4.18.72-1.53 1.8-2.63 1.08-1.09 2.37-1.78t2.75-1.02q1.45-.33 2.92-.33 2.55 0 4.53.78t3.33 2.28 2.05 3.66q.71 2.16.71 4.95v19.59h-7.41v-19.59q0-2.94-1.29-4.43-1.29-1.48-3.78-1.48-1.14 0-2.12.39-.97.39-1.71 1.13-.73.73-1.15 1.84t-.42 2.55v19.59h-7.44v-19.59q0-3.09-1.25-4.5-1.24-1.41-3.64-1.41-1.62 0-3.02.8-1.39.79-2.59 2.17zm59.1-7.95v-5.19q-3.21.15-5.4.56-2.19.4-3.51 1.03t-1.89 1.47-.57 1.83q0 1.95 1.16 2.79 1.15.84 3.01.84 2.28 0 3.94-.82 1.67-.83 3.26-2.51m-15.66-16.17-1.32-2.37q5.31-4.86 12.78-4.86 2.7 0 4.83.89 2.13.88 3.6 2.46 1.47 1.57 2.23 3.76.77 2.19.77 4.8v19.44h-3.36q-1.05 0-1.62-.32-.57-.31-.9-1.27l-.66-2.22q-1.17 1.05-2.28 1.85-1.11.79-2.31 1.33t-2.56.83q-1.37.28-3.02.28-1.95 0-3.6-.52-1.65-.53-2.85-1.58t-1.86-2.61-.66-3.63q0-1.17.39-2.33.39-1.15 1.28-2.2.88-1.05 2.29-1.98t3.47-1.62q2.05-.69 4.78-1.12 2.73-.44 6.24-.53v-1.8q0-3.09-1.32-4.58-1.32-1.48-3.81-1.48-1.8 0-2.98.42-1.19.42-2.09.95-.9.52-1.64.94-.73.42-1.63.42-.78 0-1.32-.41-.54-.4-.87-.94m41.1 7.98q1.38 0 2.4-.38 1.02-.37 1.7-1.03.67-.66 1.01-1.59.35-.93.35-2.04 0-2.28-1.36-3.61-1.37-1.34-4.1-1.34t-4.09 1.34q-1.37 1.33-1.37 3.61 0 1.08.35 2.01.34.93 1.02 1.61.67.67 1.7 1.04 1.04.38 2.39.38m8.37 17.52q0-.9-.54-1.47t-1.47-.88q-.93-.32-2.17-.47-1.25-.15-2.64-.23-1.4-.07-2.88-.13-1.49-.06-2.9-.24-1.23.69-1.99 1.62-.77.93-.77 2.16 0 .81.41 1.51.4.71 1.29 1.22.88.51 2.29.79 1.41.29 3.45.29 2.07 0 3.57-.32 1.5-.31 2.47-.86.98-.56 1.43-1.33.45-.76.45-1.66m-1.47-31.11h8.85v2.76q0 1.32-1.59 1.62l-2.76.51q.63 1.59.63 3.48 0 2.28-.92 4.13-.91 1.84-2.53 3.13t-3.82 1.99q-2.21.71-4.76.71-.9 0-1.74-.09t-1.65-.24q-1.44.87-1.44 1.95 0 .93.85 1.37.86.43 2.27.61t3.21.23q1.8.04 3.69.19t3.69.53q1.8.37 3.21 1.18t2.27 2.21q.85 1.39.85 3.58 0 2.04-1 3.96-1.01 1.92-2.91 3.42-1.91 1.5-4.69 2.41-2.77.92-6.31.92-3.48 0-6.06-.68-2.58-.67-4.29-1.79-1.71-1.13-2.55-2.6t-.84-3.06q0-2.16 1.31-3.61 1.3-1.46 3.58-2.33-1.23-.63-1.95-1.68t-.72-2.76q0-.69.26-1.43.25-.73.75-1.45.49-.72 1.24-1.36.75-.65 1.77-1.16-2.34-1.26-3.67-3.36-1.34-2.1-1.34-4.92 0-2.28.92-4.12.91-1.85 2.55-3.15 1.63-1.31 3.87-2 2.23-.69 4.87-.69 1.98 0 3.72.41 1.74.4 3.18 1.18m19.38 10.8h13.98q0-1.44-.4-2.71-.41-1.28-1.22-2.24t-2.06-1.51q-1.24-.56-2.89-.56-3.21 0-5.05 1.83-1.85 1.83-2.36 5.19m18.9 4.47H459.9q.18 2.37.84 4.09.66 1.73 1.74 2.86 1.08 1.12 2.56 1.68 1.49.55 3.29.55t3.11-.42q1.3-.42 2.28-.93.97-.51 1.7-.93.74-.42 1.43-.42.93 0 1.38.69l2.13 2.7q-1.23 1.44-2.76 2.42-1.53.97-3.19 1.56-1.67.58-3.4.82-1.72.24-3.34.24-3.21 0-5.97-1.06-2.76-1.07-4.8-3.15-2.04-2.09-3.21-5.16-1.17-3.08-1.17-7.13 0-3.15 1.02-5.92 1.02-2.78 2.93-4.83 1.9-2.06 4.64-3.26 2.75-1.2 6.2-1.2 2.91 0 5.37.93t4.23 2.72q1.77 1.78 2.78 4.38 1 2.59 1 5.92 0 1.68-.36 2.27-.36.58-1.38.58"/></svg>